# xmcd CD database file
#
# Track frame offsets:
#	150
#	17009
#	35041
#	53581
#	75158
#	92751
#	112743
#	128779
#	152252
#	175499
#	198630
#
# Disc length: 2945 seconds
#
# Revision: 0
# Processed by: cddbd v1.4PL0 Copyright (c) Steve Scherf et al.
# Submitted via: CDex 1.50beta9
#
DISCID=7b0b7f0b
DTITLE=Chris Cagle - Chris Cagle
DYEAR=2003
DGENRE=Country
TTITLE0=What A Beautiful Day
TTITLE1=Chicks Dig It
TTITLE2=Look What I Found
TTITLE3=I Love It When She Does That
TTITLE4=Night On The Country
TTITLE5=I'd Be Lying
TTITLE6=Everything
TTITLE7=It Takes Two
TTITLE8=Growin' Love
TTITLE9=Just Loves Me
TTITLE10=Look At What I've Done
EXTD=YEAR: 2003
EXTT0=
EXTT1=
EXTT2=
EXTT3=
EXTT4=
EXTT5=
EXTT6=
EXTT7=
EXTT8=
EXTT9=
EXTT10=
PLAYORDER=
